# xmcd
#
# Track frame offsets:
#	150
#	10918
#	22067
#	30528
#	39508
#	50042
#	60376
#	71973
#	83524
#	94333
#	105622
#	117601
#	128550
#	139984
#	150349
#	160008
#	167520
#	179469
#	190329
#	200295
#	210624
#	222221
#	233895
#	244179
#	253868
#	263354
#	273591
#	286102
#	296291
#	307456
#	317398
#	326267
#	336271
#
# Disc length: 4634 seconds
#
# Revision: 0
# Processed by: cddbd v1.5.2PL0 Copyright (c) Steve Scherf et al.
# Submitted via: EasyCDDAExtractor 15.3.0.1
#
DISCID=dd121821
DTITLE=Tuttle Wesley - Detour Cd 3
DYEAR=1900
DGENRE=
TTITLE0=Cimarron Roll On (Transcription)
TTITLE1=Tomorrow Never Comes (Transcription)
TTITLE2=Love Gone Cold (Transcription)
TTITLE3=You Don't Care (Transcription)
TTITLE4=I Want To Be Wanted (Transcription)
TTITLE5=Long Time Gone (Transcription)
TTITLE6=Love Me Now (Transcription)
TTITLE7=Why Do I Love You Oh Why (Transcription)
TTITLE8=Little You Cared (Transcription)
TTITLE9=Have I Told You Lately That I Love You (Transcription)
TTITLE10=Be Honest With Me (Transcription)
TTITLE11=Don't Live A Lie (Transcription)
TTITLE12=No One Will Ever Know (Transcription)
TTITLE13=Cattle Call (Transcription)
TTITLE14=I Guess I've Been Asleep All These Years (Transcription)
TTITLE15=Steel Guitar Rag (Transcription)
TTITLE16=I Hang My Head And Cry (Transcription)
TTITLE17=You Can't Break My Heart (Transcription)
TTITLE18=You Brought Sorrow To My Heart (Transcription)
TTITLE19=End Of The World (Transcription)
TTITLE20=You Two Timed Me One Time Too Often (Transcription)
TTITLE21=There's A New Moon Over My Shoulder (Transcription)
TTITLE22=Nobody's Darlin' But Mine (Transcription)
TTITLE23=Born To Lose (Transcription)
TTITLE24=We Live In Two Different Worlds (Transcription)
TTITLE25=That Pioneer Mother Of Mine (Transcription)
TTITLE26=No Letter Today (Transcription)
TTITLE27=Christmas Carols By The Old Corral (Transcription)
TTITLE28=Pins And Needles In My Heart (Transcription)
TTITLE29=Home In San Antone (Transcription)
TTITLE30=Darling What More Can I Do (Transcription)
TTITLE31=Try Me One More Time (Transcription)
TTITLE32=Jealous Heart (Transcription)
EXTD=
EXTT0=
EXTT1=
EXTT2=
EXTT3=
EXTT4=
EXTT5=
EXTT6=
EXTT7=
EXTT8=
EXTT9=
EXTT10=
EXTT11=
EXTT12=
EXTT13=
EXTT14=
EXTT15=
EXTT16=
EXTT17=
EXTT18=
EXTT19=
EXTT20=
EXTT21=
EXTT22=
EXTT23=
EXTT24=
EXTT25=
EXTT26=
EXTT27=
EXTT28=
EXTT29=
EXTT30=
EXTT31=
EXTT32=
PLAYORDER=
